<svg width="40" height="40" viewBox="0 0 40 40" fill="none" xmlns="http://www.w3.org/2000/svg">
<path d="M9.18405 33.3334L12.8571 28.794C11.2192 27.2065 10.1858 24.8888 10.1858 22.3058C10.1858 19.7267 11.2192 17.409 12.8571 15.8254L9.18405 11.2821C6.40026 13.9804 4.64282 17.9202 4.64282 22.3058C4.64282 26.6953 6.40026 30.6351 9.18405 33.3334" fill="#626465"/>
<path d="M25.1598 22.3077C24.4084 26.2885 21.1404 29.2818 17.2253 29.2818C16.3265 29.2818 15.4601 29.1269 14.6548 28.8326L12.8572 34.6257C14.2305 35.1175 15.6974 35.3847 17.2253 35.3847C23.8799 35.3847 29.4344 30.2964 30.7143 23.5353L25.1598 22.3077Z" fill="#5E5C5C"/>
<path d="M14.6548 15.775C15.4637 15.4847 16.3265 15.3299 17.2217 15.3299C21.1404 15.3299 24.412 18.3253 25.1598 22.3076L30.7143 21.0886C29.4416 14.3237 23.8835 9.23071 17.2217 9.23071C15.6938 9.23071 14.2305 9.49775 12.8572 9.99311L14.6548 15.775Z" fill="#686866"/>
</svg>
