<svg width="75" height="26" viewBox="0 0 75 26" fill="none" xmlns="http://www.w3.org/2000/svg">
<path d="M16.2024 3.325C16.5959 2.93229 17.1028 1.14379 16.5238 0.399165C16.3404 0.163435 16.0336 0.0950154 15.6057 0.199842C15.2088 0.296922 14.9805 0.492374 14.8255 0.798332C14.5763 1.29019 14.3477 2.77402 14.7337 3.32526C15.1097 3.86179 15.952 3.57468 16.2024 3.325V3.325ZM10.6027 0.399165C10.3208 3.04951 10.0032 5.64822 9.6847 8.24564C7.63997 8.27688 5.55229 8.39178 3.5801 8.17903C3.95258 5.63789 4.21974 2.94391 4.5899 0.399165H2.38673C1.59811 6.88135 0.88059 13.4671 0 19.816H2.24915C2.60185 16.5594 2.93191 13.2693 3.39653 10.1741C5.31419 10.1057 7.61253 9.98638 9.45533 10.2407C9.07536 13.4585 8.61627 16.561 8.26196 19.816H10.5111C11.234 13.2381 11.9952 6.71636 12.898 0.399165H10.6027V0.399165ZM42.4111 5.98491C40.6611 4.96091 39.2852 6.69132 38.6474 8.31225C38.7921 7.59112 38.8516 6.74657 38.9689 5.98491H37.2246C36.7982 10.7757 36.1698 15.2734 35.5724 19.816H37.5462C37.8228 17.1197 37.9422 13.4849 38.5558 10.9055C39.0462 8.84439 40.3298 7.08842 42.1819 8.04632C42.2075 7.28594 42.3578 6.70552 42.4111 5.98491V5.98491ZM43.5125 16.5579C43.3305 15.8768 43.2836 14.7526 43.3291 13.8977C43.431 11.9765 43.9143 9.6373 44.6602 8.57819C45.6894 7.11656 47.7213 7.35849 49.3421 8.17928C49.3921 7.38792 49.5019 6.68202 49.5716 5.91855C46.9136 5.28959 44.3914 5.68101 43.0541 7.71402C41.7447 9.70417 40.8867 14.2783 41.4932 17.1564C42.2032 20.5242 45.3873 20.7073 47.9651 19.4174C48.0792 18.7404 48.1396 17.9857 48.2405 17.2896C46.8316 18.3495 44.1385 18.9005 43.5125 16.5579V16.5579ZM65.6821 6.05126C63.9376 4.78766 62.4853 6.90794 61.9184 8.17903C62.0799 7.52683 62.0891 6.65337 62.2396 5.98465H60.4955C60.0252 10.7338 59.4584 15.3431 58.7974 19.8158H60.817C60.8297 17.9826 61.0783 16.6266 61.2757 14.829C61.6978 10.9902 62.3176 6.78066 65.4071 8.04606C65.5092 7.39696 65.5518 6.66059 65.6821 6.05126ZM14.1828 5.98491C14.1294 5.99601 14.1329 6.08999 14.1368 6.18423C13.702 10.896 13.1133 15.3854 12.4846 19.8158H14.4582C14.9324 15.0723 15.4756 10.4292 16.1564 5.98465L14.1828 5.98491V5.98491ZM31.5328 5.71897C30.1067 5.87827 28.9012 6.47263 28.0445 7.78038C26.9937 9.38401 26.1429 12.9298 26.3922 16.159C26.7479 20.7657 30.7071 20.6002 33.8737 19.4837C33.9277 18.6751 34.0628 17.9839 34.1491 17.2227C32.8447 17.9299 30.5797 18.917 29.2377 17.6885C28.2247 16.7603 28.2188 14.411 28.5492 12.3687C30.6775 12.2706 32.8896 12.2892 35.0209 12.3687C35.156 10.9213 35.543 9.34322 35.2045 7.9136C34.7582 6.02622 33.1596 5.5372 31.5328 5.71897ZM33.4146 10.7726H28.7786C28.9254 9.22858 29.8843 7.53148 31.395 7.44782C32.8169 7.36908 33.8349 8.20407 33.4146 10.7726V10.7726ZM24.0513 5.98491C22.3808 5.07581 20.345 6.16099 19.4623 7.19325C19.4655 7.23869 19.4412 7.24488 19.4152 7.24824C19.4302 7.22991 19.4466 7.21158 19.4623 7.19325C19.4621 7.18944 19.4618 7.18565 19.4614 7.18189C19.4762 6.73805 19.584 6.42874 19.599 5.98491H17.9007C17.193 12.8061 16.3537 19.4365 15.4681 26H17.4418C17.7275 23.4439 17.916 20.7471 18.314 18.3531C18.7647 20.871 21.7078 20.39 22.9499 19.4171C25.5121 17.4094 27.4886 7.85525 24.0513 5.98491V5.98491ZM22.4908 17.2227C21.4348 18.8429 18.8388 18.8186 18.6351 16.0921C18.5466 14.906 18.8515 13.6623 19.0026 12.4351C19.155 11.1929 19.265 10.0011 19.4154 8.91074C20.4555 7.07086 23.5118 6.84856 23.8219 9.90814C24.0908 12.5644 23.3651 15.8809 22.4908 17.2227V17.2227ZM73.0258 0.000258051C72.8567 2.14894 72.6306 4.21525 72.3376 6.18423C67.4962 3.96403 64.5272 9.12453 64.5807 15.4939C64.5912 16.7257 64.7375 17.9472 65.269 18.8186C66.1857 20.3198 68.8095 20.6794 70.1346 19.4169C70.3908 19.1726 70.653 18.728 70.8229 18.4197C70.9506 18.1876 71.1533 17.5796 71.1902 17.7546C71.1203 18.4293 71.0162 19.0546 71.0068 19.8158H72.7968C73.142 12.6463 74.2085 6.52272 75 0H73.026V0.000258051H73.0258ZM68.6197 18.2865C67.291 18.3278 66.6304 17.1365 66.5999 15.1613C66.547 11.7021 67.5944 7.85887 69.7213 7.51418C70.7115 7.35384 71.4285 7.68743 72.154 8.04632C71.4878 11.9321 71.7282 18.1899 68.6197 18.2865V18.2865ZM51.5909 5.98491C51.4937 6.77497 51.3446 7.48991 51.2237 8.24564C52.3884 7.82246 56.015 6.5253 56.3645 8.77752C56.4805 9.52576 56.2804 10.3207 56.135 10.9055C52.8557 10.4555 50.1827 11.2448 49.4795 14.6292C49.0086 16.8961 49.5322 19.1269 50.5353 19.7497C52.467 20.9487 54.8167 19.5751 55.6301 17.6885C55.5456 18.3415 55.4656 19.0017 55.4927 19.816H57.1907C57.2089 17.4598 57.4456 15.5525 57.6956 13.4322C57.9088 11.6267 58.31 9.8392 58.2465 8.24564C58.1004 4.59609 53.927 5.88705 51.5909 5.98491V5.98491ZM54.8038 17.1561C53.7867 18.5986 50.9316 19.0084 51.2237 15.5602C51.4661 12.6964 53.6187 12.0878 55.951 12.5012C55.7778 14.0679 55.5789 16.057 54.8038 17.1561V17.1561Z" fill="white"/>
</svg>
